HIERARCHY
ROOT Hips
{
	OFFSET 0.000000 0.000000 0.000000
	CHANNELS 6 Xposition Yposition Zposition Zrotation Yrotation Xrotation 
	JOINT LHipJoint
	{
		OFFSET 0.000000 0.000000 0.000000
		CHANNELS 3 Zrotation Yrotation Xrotation
		JOINT LeftUpLeg
		{
			OFFSET 1.363060 -1.794630 0.839290
			CHANNELS 3 Zrotation Yrotation Xrotation
			JOINT LeftLeg
			{
				OFFSET 2.448110 -6.726130 0.000000
				CHANNELS 3 Zrotation Yrotation Xrotation
				JOINT LeftFoot
				{
					OFFSET 2.562200 -7.039590 0.000000
					CHANNELS 3 Zrotation Yrotation Xrotation
					JOINT LeftToeBase
					{
						OFFSET 0.157640 -0.433110 2.322550
						CHANNELS 3 Zrotation Yrotation Xrotation
						End Site
						{
							OFFSET 0.000000 0.000000 0.000000
						}
					}
				}
			}
		}
	}
	JOINT RHipJoint
	{
		OFFSET 0.000000 0.000000 0.000000
		CHANNELS 3 Zrotation Yrotation Xrotation
		JOINT RightUpLeg
		{
			OFFSET -1.305520 -1.794630 0.839290
			CHANNELS 3 Zrotation Yrotation Xrotation
			JOINT RightLeg
			{
				OFFSET -2.542530 -6.985550 0.000000
				CHANNELS 3 Zrotation Yrotation Xrotation
				JOINT RightFoot
				{
					OFFSET -2.568260 -7.056230 0.000000
					CHANNELS 3 Zrotation Yrotation Xrotation
					JOINT RightToeBase
					{
						OFFSET -0.164730 -0.452590 2.363150
						CHANNELS 3 Zrotation Yrotation Xrotation
						End Site
						{
							OFFSET 0.000000 0.000000 0.000000
						}
					}
				}
			}
		}
	}
	JOINT LowerBack
	{
		OFFSET 0.000000 0.000000 0.000000
		CHANNELS 3 Zrotation Yrotation Xrotation
		JOINT Spine
		{
			OFFSET 0.028270 2.035590 -0.193380
			CHANNELS 3 Zrotation Yrotation Xrotation
			JOINT Spine1
			{
				OFFSET 0.056720 2.048850 -0.042750
				CHANNELS 3 Zrotation Yrotation Xrotation
				JOINT Neck
				{
					OFFSET 0.000000 0.000000 0.000000
					CHANNELS 3 Zrotation Yrotation Xrotation
					JOINT Neck1
					{
						OFFSET -0.054170 1.746240 0.172020
						CHANNELS 3 Zrotation Yrotation Xrotation
						JOINT Head
						{
							OFFSET 0.104070 1.761360 -0.123970
							CHANNELS 3 Zrotation Yrotation Xrotation
							End Site
							{
								OFFSET 0.000000 0.000000 0.000000
							}
						}
					}
				}
				JOINT LeftShoulder
				{
					OFFSET 0.000000 0.000000 0.000000
					CHANNELS 3 Zrotation Yrotation Xrotation
					JOINT LeftArm
					{
						OFFSET 3.362410 1.200890 -0.311210
						CHANNELS 3 Zrotation Yrotation Xrotation
						JOINT LeftForeArm
						{
							OFFSET 4.983000 -0.000000 -0.000000
							CHANNELS 3 Zrotation Yrotation Xrotation
							JOINT LeftHand
							{
								OFFSET 3.483560 -0.000000 -0.000000
								CHANNELS 3 Zrotation Yrotation Xrotation
								JOINT LeftFingerBase
								{
									OFFSET 0.000000 0.000000 0.000000
									CHANNELS 3 Zrotation Yrotation Xrotation
									JOINT LeftHandIndex1
									{
										OFFSET 0.715260 -0.000000 -0.000000
										CHANNELS 3 Zrotation Yrotation Xrotation
										End Site
										{
											OFFSET 0.000000 0.000000 0.000000
										}
									}
								}
								JOINT LThumb
								{
									OFFSET 0.000000 0.000000 0.000000
									CHANNELS 3 Zrotation Yrotation Xrotation
									End Site
									{
										OFFSET 0.000000 0.000000 0.000000
									}
								}
							}
						}
					}
				}
				JOINT RightShoulder
				{
					OFFSET 0.000000 0.000000 0.000000
					CHANNELS 3 Zrotation Yrotation Xrotation
					JOINT RightArm
					{
						OFFSET -3.136600 1.374050 -0.404650
						CHANNELS 3 Zrotation Yrotation Xrotation
						JOINT RightForeArm
						{
							OFFSET -5.241900 -0.000000 -0.000000
							CHANNELS 3 Zrotation Yrotation Xrotation
							JOINT RightHand
							{
								OFFSET -3.444170 -0.000000 -0.000000
								CHANNELS 3 Zrotation Yrotation Xrotation
								JOINT RightFingerBase
								{
									OFFSET 0.000000 0.000000 0.000000
									CHANNELS 3 Zrotation Yrotation Xrotation
									JOINT RightHandIndex1
									{
										OFFSET -0.622530 -0.000000 -0.000000
										CHANNELS 3 Zrotation Yrotation Xrotation
										End Site
										{
											OFFSET 0.000000 0.000000 0.000000
										}
									}
								}
								JOINT RThumb
								{
									OFFSET 0.000000 0.000000 0.000000
									CHANNELS 3 Zrotation Yrotation Xrotation
									End Site
									{
										OFFSET 0.000000 0.000000 0.000000
									}
								}
							}
						}
					}
				}
			}
		}
	}
}
MOTION
Frames: 9
Frame Time: 0.008333
-10.218492 17.743677 -1.850437 172.526336 89.355538 -165.489666 -9.433105 0.465052 3.621140 -9.190181 -3.525238 -34.542094 -2.588521 -1.578396 4.323451 1.428536 5.831689 -8.770256 0.068000 0.000000 -20.449401 9.101478 -2.754351 -0.430443 12.592227 -1.802145 -10.223096 0.921190 -1.416225 22.683706 -0.468537 -3.321402 14.505416 -1.636000 -0.000000 -67.472200 -0.433715 -0.531268 -2.496474 -0.784035 -0.587623 -3.733057 -6.527264 -0.536321 -1.729368 10.143262 -11.252534 -9.182103 -2.687603 -0.186158 -0.445309 0.000000 0.000000 0.000000 3.689502 11.828957 -0.030663 -70.742910 20.215646 25.907851 -179.760172 -70.362021 179.973867 3.883079 -3.694215 -0.138712 -0.003738 0.454802 -0.000000 0.000000 0.000000 0.000000 0.000000 0.000000 0.000000 7.642708 -3.415236 -0.261847 78.922771 6.600275 34.908366 179.275731 79.683220 -179.986655 0.786983 7.737057 0.059871 0.001593 -0.620447 -0.000000 0.000000 0.000000 0.000000 0.000000 0.000000 0.000000 
-9.993044 17.725233 -1.858316 172.836672 89.427244 -165.509302 -9.458126 0.477177 3.621563 -9.287133 -3.191451 -34.166568 -2.653821 -1.644009 3.366659 1.257455 5.037426 -8.273394 0.112100 -0.000000 -21.779400 9.171051 -2.753795 -0.592732 12.528533 -2.436339 -10.332467 0.708101 -1.552167 24.672428 -0.629698 -4.166956 14.879323 -1.936700 0.000000 -67.229900 -0.438571 -0.575247 -2.377146 -0.776446 -0.626391 -3.709897 -6.507820 -0.574818 -1.725998 10.090316 -11.284281 -9.097553 -2.668603 -0.185915 -0.417480 0.000000 0.000000 0.000000 3.678299 11.767115 -0.080277 -70.863742 20.393238 25.741859 -179.776080 -70.349199 179.972629 4.062568 -3.813986 -0.149672 -0.007476 0.457041 -0.000000 0.000000 0.000000 0.000000 0.000000 0.000000 0.000000 7.499520 -3.512805 -0.298670 78.951412 6.371215 35.113029 179.284207 79.637910 -179.986701 0.832711 7.680193 0.062923 -0.001291 -0.616615 -0.000000 0.000000 0.000000 0.000000 0.000000 0.000000 0.000000 
-9.770059 17.695168 -1.865115 172.411263 89.433412 -166.231432 -9.448966 0.513092 3.648527 -9.294539 -3.154652 -33.921637 -2.683244 -1.646635 3.047622 1.145553 4.536047 -7.849382 0.147399 0.000000 -22.973201 9.274468 -2.713681 -0.759117 12.445881 -3.045459 -10.618898 0.480522 -1.680255 26.968570 -0.840501 -5.338545 14.816573 -2.342400 -0.000000 -66.486301 -0.444181 -0.636902 -2.273191 -0.768217 -0.683437 -3.688259 -6.496673 -0.631818 -1.720518 10.054073 -11.327207 -9.019617 -2.656501 -0.186096 -0.392143 0.000000 0.000000 0.000000 3.674824 11.668994 -0.121302 -70.983900 20.465297 25.595374 -179.788762 -70.401672 179.971627 4.209011 -3.906380 -0.158638 -0.010674 0.458959 0.000000 0.000000 0.000000 0.000000 0.000000 0.000000 0.000000 7.404263 -3.631427 -0.331543 78.959361 6.137990 35.261806 179.291989 79.572045 -179.986888 0.859679 7.632259 0.064579 -0.003846 -0.613351 -0.000000 0.000000 0.000000 0.000000 0.000000 0.000000 0.000000 
-9.549972 17.653530 -1.870360 171.198850 89.366500 -167.699800 -9.401663 0.571413 3.705802 -9.204958 -3.445572 -33.807094 -2.674243 -1.589621 3.344084 1.097301 4.368089 -7.492883 0.182300 -0.000000 -24.010499 9.415725 -2.633258 -0.928617 12.341666 -3.613851 -11.082261 0.245769 -1.801735 29.554124 -1.098129 -6.805260 14.329427 -2.821900 0.000001 -65.222800 -0.454755 -0.717371 -2.186691 -0.760541 -0.759636 -3.668518 -6.495941 -0.708085 -1.713434 10.039414 -11.393820 -8.953923 -2.651775 -0.186658 -0.370955 0.000000 0.000000 0.000000 3.673324 11.524120 -0.153774 -71.089248 20.431517 25.466160 -179.797578 -70.505846 179.970902 4.310776 -3.978215 -0.165410 -0.012964 0.460832 0.000000 0.000000 0.000000 0.000000 0.000000 0.000000 0.000000 7.365153 -3.782374 -0.355905 78.949889 5.915446 35.356863 179.297154 79.484709 -179.987052 0.885657 7.593123 0.066237 -0.006285 -0.610790 -0.000000 0.000000 0.000000 0.000000 0.000000 0.000000 0.000000 
-9.333251 17.600434 -1.873631 169.215259 89.223239 -169.904259 -9.317277 0.646639 3.779594 -9.055028 -4.016228 -33.832708 -2.634384 -1.475243 4.259415 1.105084 4.492090 -7.219106 0.218500 0.000000 -24.858400 9.594871 -2.517468 -1.096539 12.208228 -4.121083 -11.703402 0.013471 -1.920195 32.394743 -1.396144 -8.502814 13.441830 -3.322800 0.000000 -63.434600 -0.482170 -0.816572 -2.108683 -0.756598 -0.853712 -3.649899 -6.508121 -0.802126 -1.707946 10.051159 -11.464987 -8.900561 -2.656046 -0.187694 -0.354275 0.000000 0.000000 0.000000 3.682586 11.342646 -0.172310 -71.170962 20.264336 25.369217 -179.800857 -70.676472 179.970531 4.361790 -4.018836 -0.168990 -0.014425 0.462416 -0.000000 0.000000 0.000000 0.000000 0.000000 0.000000 0.000000 7.389285 -3.941259 -0.372680 78.927730 5.680956 35.364421 179.300178 79.365232 -179.987076 0.935518 7.564082 0.069793 -0.009629 -0.609135 -0.000000 0.000000 0.000000 0.000000 0.000000 0.000000 0.000000 
-9.120183 17.536028 -1.874684 166.550925 89.002953 -172.756593 -9.202824 0.730778 3.854785 -8.895922 -4.792782 -34.022367 -2.572630 -1.306849 5.792932 1.157155 4.835837 -7.044792 0.254000 -0.000000 -25.526500 9.807272 -2.375862 -1.255654 12.035960 -4.553539 -12.477194 -0.207130 -2.041652 35.460927 -1.723241 -10.337699 12.195688 -3.779200 0.000000 -61.147800 -0.539131 -0.935160 -2.033988 -0.759510 -0.965198 -3.631699 -6.533499 -0.913288 -1.704195 10.091137 -11.540897 -8.862846 -2.669204 -0.189130 -0.343186 0.000000 0.000000 0.000000 3.696323 11.128786 -0.175527 -71.214158 19.951553 25.310564 -179.797989 -70.920901 179.970480 4.369564 -4.029631 -0.169872 -0.015444 0.463724 -0.000000 0.000000 0.000000 0.000000 0.000000 0.000000 0.000000 7.480238 -4.107352 -0.380198 78.897118 5.439320 35.280246 179.301326 79.225837 -179.986869 1.021961 7.549291 0.076144 -0.014175 -0.608433 -0.000000 0.000000 0.000000 0.000000 0.000000 0.000000 0.000000 
-8.910981 17.460470 -1.873791 163.599535 88.721212 -175.870774 -9.082404 0.813285 3.901237 -8.803517 -5.600010 -34.437818 -2.505971 -1.080689 7.999554 1.226871 5.227564 -7.017818 0.274799 -0.000000 -26.015400 10.031662 -2.224971 -1.393033 11.835203 -4.886277 -13.392050 -0.409694 -2.171934 38.713361 -2.065035 -12.214859 10.657878 -4.133400 -0.000000 -58.459099 -0.629888 -1.069478 -1.952248 -0.770968 -1.089778 -3.613559 -6.570716 -1.037171 -1.706556 10.153909 -11.616047 -8.839326 -2.690638 -0.190921 -0.337350 0.000000 0.000000 0.000000 3.697974 10.878555 -0.162685 -71.206551 19.497593 25.286007 -179.789254 -71.236061 179.970675 4.346866 -4.018796 -0.168551 -0.016455 0.464961 -0.000000 0.000000 0.000000 0.000000 0.000000 0.000000 0.000000 7.629787 -4.272659 -0.376660 78.865416 5.190695 35.097927 179.301461 79.087594 -179.986363 1.155501 7.551857 0.085989 -0.020197 -0.608578 -0.000000 0.000000 0.000000 0.000000 0.000000 0.000000 0.000000 
-8.705689 17.374317 -1.871070 160.545132 88.406770 -179.068379 -8.971219 0.886779 3.903011 -8.813370 -6.332099 -35.079133 -2.437195 -0.802017 10.830295 1.301063 5.588622 -7.164107 0.270600 0.000000 -26.324900 10.256969 -2.075014 -1.501198 11.607868 -5.100906 -14.433411 -0.593278 -2.315465 42.107923 -2.403621 -14.031132 8.903763 -4.337300 0.000000 -55.504099 -0.756721 -1.211835 -1.857737 -0.792444 -1.219523 -3.596145 -6.619464 -1.165956 -1.721181 10.234514 -11.675393 -8.824507 -2.720622 -0.193156 -0.335317 0.000000 0.000000 0.000000 3.671752 10.590259 -0.132934 -71.134553 18.909977 25.290974 -179.775205 -71.623424 179.971007 4.315578 -3.989961 -0.166324 -0.018163 0.466101 -0.000000 0.000000 0.000000 0.000000 0.000000 0.000000 0.000000 7.833826 -4.417833 -0.361255 78.838252 4.924835 34.806070 179.302509 78.976803 -179.985559 1.338309 7.575029 0.099827 -0.027828 -0.609424 -0.000000 0.000000 0.000000 0.000000 0.000000 0.000000 0.000000 
-8.504154 17.278335 -1.866807 157.529130 88.093452 177.794294 -8.879908 0.945499 3.857013 -8.924613 -6.933280 -35.919109 -2.361694 -0.482422 14.174601 1.375365 5.897969 -7.502568 0.234600 0.000000 -26.472000 10.475069 -1.932855 -1.574668 11.363764 -5.180873 -15.592724 -0.760607 -2.474110 45.600104 -2.720398 -15.690940 7.003287 -4.361700 -0.000000 -52.388900 -0.914696 -1.352537 -1.753401 -0.823044 -1.345308 -3.577895 -6.675611 -1.290487 -1.738936 10.328507 -11.719334 -8.823597 -2.756662 -0.195541 -0.338666 0.000000 0.000000 0.000000 3.614412 10.305228 -0.086529 -70.995423 18.145382 25.349146 -179.756326 -72.117756 179.971290 4.315869 -3.939019 -0.164576 -0.022095 0.466954 -0.000000 0.000000 0.000000 0.000000 0.000000 0.000000 0.000000 8.085560 -4.543382 -0.337693 78.815408 4.656036 34.417562 179.307435 78.932821 -179.984627 1.545161 7.626851 0.115963 -0.036300 -0.610727 -0.000000 0.000000 0.000000 0.000000 0.000000 0.000000 0.000000 
